<?xml version="1.0" encoding="utf-8"?>
<!-- Generator: Adobe Illustrator 15.0.0, SVG Export Plug-In . SVG Version: 6.00 Build 0)  -->
<!DOCTYPE svg PUBLIC "-//W3C//DTD SVG 1.1//EN" "http://www.w3.org/Graphics/SVG/1.1/DTD/svg11.dtd">
<svg version="1.1" id="Layer_1" xmlns="http://www.w3.org/2000/svg" xmlns:xlink="http://www.w3.org/1999/xlink" x="0px" y="0px"
	 width="240.011px" height="240px" viewBox="0 0 240.011 240" enable-background="new 0 0 240.011 240" xml:space="preserve">
<g>
	<g>
		<path fill-rule="evenodd" clip-rule="evenodd" fill="#FFFFFF" d="M0.251,0c79.919,0,159.841,0,239.76,0c0,79.998,0,160.005,0,240
			c-79.998,0-160.004,0-240,0c0-79.761,0-159.519,0-239.28C-0.01,0.379-0.029,0.041,0.251,0z M68.651,1.2
			c-22.58,22.38-45.06,44.86-67.44,67.44c0,27.294,0,55.219,0,82.8c0,4.094-0.791,9.117,0,12c0.615,2.241,5.972,6.452,8.16,8.64
			c20.159,20.159,39.579,39.429,59.28,59.04c2.481,1.188,5.084,6.758,8.4,7.44c3.204,0.66,7.72,0,11.52,0c26.109,0,58.721,0,82.8,0
			c22.5-22.3,44.9-44.7,67.2-67.2c0-25.372,0-56.329,0-82.8c0-3.616,0.769-8.569,0-11.76c-0.784-3.252-6.047-5.343-7.44-8.16
			c-19.565-19.916-39.73-39.73-59.28-59.28c-2.831-2.832-5.392-6.326-8.88-8.16C131.531,1.2,100.091,1.2,68.651,1.2z"/>
		<path fill-rule="evenodd" clip-rule="evenodd" fill="#BEBEBE" d="M122.411,48.96c0.56,4.161,0.08,9.36,0.24,13.92
			c-0.08,0-0.16,0-0.24,0C122.411,58.24,122.411,53.6,122.411,48.96z"/>
		<path fill-rule="evenodd" clip-rule="evenodd" fill="#F4CACA" d="M122.411,62.88c0.08,0,0.16,0,0.24,0c0,6,0,12,0,18
			C122.091,75.36,122.57,68.8,122.411,62.88z"/>
		<path fill-rule="evenodd" clip-rule="evenodd" fill="#BEBEBE" d="M86.891,65.28c0,1.44,0,2.88,0,4.32c-0.08,0-0.16,0-0.24,0
			C86.808,68.237,86.335,66.245,86.891,65.28z"/>
		<path fill-rule="evenodd" clip-rule="evenodd" fill="#F4CACA" d="M140.651,66.72c0.08,0,0.159,0,0.239,0c0,2.32,0,4.64,0,6.96
			c-0.08,0-0.159,0-0.239,0C140.651,71.36,140.651,69.04,140.651,66.72z"/>
		<path fill-rule="evenodd" clip-rule="evenodd" fill="#8C8C8C" d="M231.131,69.36c0.4,30.88,0.4,63.439,0,94.32
			C231.131,132.24,231.131,100.8,231.131,69.36z"/>
		<path fill-rule="evenodd" clip-rule="evenodd" fill="#F4CACA" d="M126.011,72.24c0.56,5.44,0.08,11.92,0.24,17.76
			c-0.08,0-0.16,0-0.24,0C126.011,84.08,126.011,78.16,126.011,72.24z"/>
		<path fill-rule="evenodd" clip-rule="evenodd" fill="#BEBEBE" d="M140.651,73.68c0.08,0,0.159,0,0.239,0
			c-0.159,5.92,0.32,12.479-0.239,18C140.651,85.68,140.651,79.68,140.651,73.68z"/>
		<path fill-rule="evenodd" clip-rule="evenodd" fill="#D7A6A6" d="M214.812,75.36c0.56,6.08,0.08,13.2,0.239,19.68
			C214.491,88.96,214.971,81.84,214.812,75.36z"/>
		<path fill-rule="evenodd" clip-rule="evenodd" fill="#BEBEBE" d="M122.651,80.88c0.399,4,0.399,9.679,0,13.68
			C122.651,90,122.651,85.44,122.651,80.88z"/>
		<path fill-rule="evenodd" clip-rule="evenodd" fill="#8C8C8C" d="M169.691,90c2.902-2.46,10.743-1.931,12.479,0.48
			c-0.24,0-0.479,0-0.72,0c-0.647-0.553-2.314-0.085-3.36-0.24c-0.479,0-0.96,0-1.439,0C174.81,89.682,171.933,90.159,169.691,90z"
			/>
		<path fill-rule="evenodd" clip-rule="evenodd" fill="#BEBEBE" d="M126.011,90c0.08,0,0.16,0,0.24,0c0,1.36,0,2.72,0,4.08
			C125.696,93.195,126.167,91.284,126.011,90z"/>
		<path fill-rule="evenodd" clip-rule="evenodd" fill="#864141" d="M169.211,90.24c-0.146-0.014-0.284-0.036-0.24-0.24
			c0.24,0,0.48,0,0.721,0c2.241,0.159,5.118-0.318,6.96,0.24C174.171,90.24,171.691,90.24,169.211,90.24z"/>
		<path fill-rule="evenodd" clip-rule="evenodd" fill="#5E0000" d="M147.131,91.2c0.08,0,0.16,0,0.24,0c0,2.64,0,5.28,0,7.92
			c-0.08,0-0.16,0-0.24,0C147.131,96.48,147.131,93.84,147.131,91.2z"/>
		<path fill-rule="evenodd" clip-rule="evenodd" fill="#F4CACA" d="M140.651,91.68c0,0.16,0,0.32,0,0.48c0,2.24,0,4.48,0,6.72
			c-0.08,0-0.16,0-0.24,0C140.569,96.559,140.093,93.602,140.651,91.68z"/>
		<path fill-rule="evenodd" clip-rule="evenodd" fill="#864141" d="M140.651,92.16c0.08,0,0.159,0,0.239,0
			c-0.159,4.32,0.32,9.279-0.239,13.2c0-2.16,0-4.32,0-6.48C140.651,96.64,140.651,94.4,140.651,92.16z"/>
		<path fill-rule="evenodd" clip-rule="evenodd" fill="#F4CACA" d="M126.251,94.08c0.56,4.241,0.08,9.52,0.24,14.16
			c-0.08,0-0.16,0-0.24,0c0-2.96,0-5.92,0-8.88C126.251,97.6,126.251,95.84,126.251,94.08z"/>
		<path fill-rule="evenodd" clip-rule="evenodd" fill="#F4CACA" d="M122.651,94.8c0,1.52,0,3.04,0,4.56
			C122.252,98.394,122.252,95.767,122.651,94.8z"/>
		<path fill-rule="evenodd" clip-rule="evenodd" fill="#7E0000" d="M224.411,161.04c0.16-21.039-0.32-42.72,0.24-63.36
			C224.491,118.72,224.971,140.4,224.411,161.04z"/>
		<path fill-rule="evenodd" clip-rule="evenodd" fill="#BEBEBE" d="M140.411,98.88c0.08,0,0.16,0,0.24,0c0,2.16,0,4.32,0,6.48
			c0,0.08,0,0.16,0,0.24c-0.08,0-0.16,0-0.24,0C140.411,103.36,140.411,101.12,140.411,98.88z"/>
		<path fill-rule="evenodd" clip-rule="evenodd" fill="#7E0000" d="M147.131,99.12c0.08,0,0.16,0,0.24,0
			c-0.159,3.681,0.319,8-0.24,11.28C147.131,106.64,147.131,102.88,147.131,99.12z"/>
		<path fill-rule="evenodd" clip-rule="evenodd" fill="#864141" d="M126.011,99.36c0.08,0,0.16,0,0.24,0c0,2.96,0,5.92,0,8.88
			c0,1.68,0,3.36,0,5.04C125.691,109.12,126.171,103.92,126.011,99.36z"/>
		<path fill-rule="evenodd" clip-rule="evenodd" fill="#864141" d="M65.771,103.44c0.333-0.547,1.67-0.09,2.4-0.24
			C67.838,103.748,66.5,103.29,65.771,103.44z"/>
		<path fill-rule="evenodd" clip-rule="evenodd" fill="#F4CACA" d="M69.851,104.88c0.08,0,0.16,0,0.24,0
			c-0.156,1.204,0.314,3.034-0.24,3.84c0-0.72,0-1.44,0-2.16C69.851,106,69.851,105.44,69.851,104.88z"/>
		<path fill-rule="evenodd" clip-rule="evenodd" fill="#8C8C8C" d="M140.411,105.6c0.08,0,0.16,0,0.24,0c0,2.88,0,5.76,0,8.64
			c-0.08,0-0.16,0-0.24,0c0-1.28,0-2.56,0-3.84C140.411,108.8,140.411,107.2,140.411,105.6z"/>
		<path fill-rule="evenodd" clip-rule="evenodd" fill="#8C8C8C" d="M69.611,106.56c0.08,0,0.16,0,0.24,0c0,0.72,0,1.44,0,2.16
			c0,1.04,0,2.08,0,3.12c-0.08,0-0.16,0-0.24,0C69.611,110.08,69.611,108.32,69.611,106.56z"/>
		<path fill-rule="evenodd" clip-rule="evenodd" fill="#864141" d="M122.891,108.48c0.399,0.808,0.399,3.272,0,4.08
			C122.891,111.2,122.891,109.84,122.891,108.48z"/>
		<path fill-rule="evenodd" clip-rule="evenodd" fill="#7E0000" d="M63.131,108.72c0,6.16,0,12.32,0,18.48
			C62.731,121.6,62.731,114.321,63.131,108.72z"/>
		<path fill-rule="evenodd" clip-rule="evenodd" fill="#F4CACA" d="M140.411,110.4c0,1.28,0,2.56,0,3.84c0,1.04,0,2.08,0,3.12
			c-0.08,0-0.16,0-0.24,0C140.33,115.119,139.853,112.242,140.411,110.4z"/>
		<path fill-rule="evenodd" clip-rule="evenodd" fill="#BEBEBE" d="M69.611,112.08c0-0.08,0-0.16,0-0.24c0.08,0,0.16,0,0.24,0
			c0,4.24,0,8.48,0,12.72c-0.08,0-0.16,0-0.24,0C69.611,120.4,69.611,116.24,69.611,112.08z"/>
		<path fill-rule="evenodd" clip-rule="evenodd" fill="#864141" d="M106.811,112.08c0.044-0.355,0.58-0.22,0.96-0.24
			c2.321,0.159,5.278-0.318,7.2,0.24C112.251,112.08,109.531,112.08,106.811,112.08z"/>
		<path fill-rule="evenodd" clip-rule="evenodd" fill="#864141" d="M140.411,114.24c0.08,0,0.16,0,0.24,0
			c-0.158,1.842,0.317,4.317-0.24,5.76c0-0.88,0-1.76,0-2.64C140.411,116.32,140.411,115.28,140.411,114.24z"/>
		<path fill-rule="evenodd" clip-rule="evenodd" fill="#BEBEBE" d="M140.171,117.36c0.08,0,0.16,0,0.24,0c0,0.88,0,1.76,0,2.64
			c0,0.08,0,0.16,0,0.24c-0.08,0-0.16,0-0.24,0C140.171,119.28,140.171,118.32,140.171,117.36z"/>
		<path fill-rule="evenodd" clip-rule="evenodd" fill="#8C8C8C" d="M140.171,120.24c0.08,0,0.16,0,0.24,0c0,0.96,0,1.92,0,2.88
			C139.86,122.631,140.324,121.127,140.171,120.24z"/>
		<path fill-rule="evenodd" clip-rule="evenodd" fill="#864141" d="M214.812,123.84c0.399,10.48,0.399,22.641,0,33.12
			C214.812,145.92,214.812,134.88,214.812,123.84z"/>
		<path fill-rule="evenodd" clip-rule="evenodd" fill="#8C8C8C" d="M69.611,124.561c0.08,0,0.16,0,0.24,0c0,0.8,0,1.6,0,2.399
			c0,0.641,0,1.28,0,1.92c-0.08,0-0.16,0-0.24,0C69.611,127.44,69.611,126,69.611,124.561z"/>
		<path fill-rule="evenodd" clip-rule="evenodd" fill="#864141" d="M144.971,127.2c0-0.08,0-0.16,0-0.24c0.801,0,1.601,0,2.4,0
			c0,0.08,0,0.16,0,0.24C146.571,127.2,145.771,127.2,144.971,127.2z"/>
		<path fill-rule="evenodd" clip-rule="evenodd" fill="#5E0000" d="M63.131,127.2c0.553,0.647,0.085,2.314,0.24,3.36
			c-0.08,0-0.16,0-0.24,0C63.131,129.44,63.131,128.32,63.131,127.2z"/>
		<path fill-rule="evenodd" clip-rule="evenodd" fill="#864141" d="M69.611,128.88c0.08,0,0.16,0,0.24,0c0,0.88,0,1.761,0,2.641
			C69.302,131.109,69.763,129.688,69.611,128.88z"/>
		<path fill-rule="evenodd" clip-rule="evenodd" fill="#7E0000" d="M63.131,130.561c0.08,0,0.16,0,0.24,0c0,0.8,0,1.6,0,2.399
			C62.824,132.628,63.281,131.29,63.131,130.561z"/>
		<path fill-rule="evenodd" clip-rule="evenodd" fill="#5E0000" d="M105.851,192.48c0-0.08,0-0.16,0-0.24
			c0.887,0.153,2.391-0.311,2.88,0.24c-0.16,0-0.32,0-0.48,0C107.451,192.48,106.651,192.48,105.851,192.48z"/>
		<path fill-rule="evenodd" clip-rule="evenodd" fill="#7E0000" d="M108.251,192.48c0.16,0,0.32,0,0.48,0c3.68,0,7.36,0,11.04,0
			c0.08,0,0.16,0,0.24,0C116.65,192.88,111.612,192.88,108.251,192.48z"/>
		<path fill-rule="evenodd" clip-rule="evenodd" fill="#864141" d="M75.371,214.801c27.201,0,54.399,0,81.6,0
			C130.331,215.2,102.011,215.2,75.371,214.801z"/>
		<path fill-rule="evenodd" clip-rule="evenodd" fill="#7E0000" d="M71.531,224.4c29.84,0,59.68,0,89.52,0
			C131.771,224.801,100.811,224.801,71.531,224.4z"/>
		<path fill-rule="evenodd" clip-rule="evenodd" fill="#8C8C8C" d="M163.691,231.12c-30.961,0.4-63.6,0.4-94.561,0
			C100.652,231.12,132.171,231.12,163.691,231.12z"/>
		<path fill-rule="evenodd" clip-rule="evenodd" fill="#F4CACA" d="M1.211,68.64c22.38-22.58,44.86-45.06,67.44-67.44
			c0,0.08,0,0.16,0,0.24c-22.5,22.3-44.9,44.7-67.2,67.2C1.371,68.64,1.291,68.64,1.211,68.64z"/>
		<path fill-rule="evenodd" clip-rule="evenodd" fill="#D7A6A6" d="M1.451,68.64c0,27.3,0,54.79,0,82.8c0,4.021-0.71,8.813,0,11.76
			c0.589,2.443,5.924,6.645,8.16,8.88c19.923,19.923,39.535,39.186,59.04,59.04c-19.701-19.611-39.122-38.881-59.28-59.04
			c-2.188-2.188-7.545-6.398-8.16-8.64c-0.791-2.883,0-7.906,0-12c0-27.581,0-55.506,0-82.8C1.291,68.64,1.371,68.64,1.451,68.64z"
			/>
		<path fill-rule="evenodd" clip-rule="evenodd" fill="#BEBEBE" d="M68.651,231.12c0.16,0,0.32,0,0.48,0
			c30.96,0.4,63.6,0.4,94.561,0c0.08,0,0.159,0,0.239,0c22.5-22.3,44.9-44.7,67.2-67.2c0-0.08,0-0.159,0-0.239
			c0.4-30.881,0.4-63.44,0-94.32c0-0.24,0-0.48,0-0.72c1.394,2.817,6.656,4.908,7.44,8.16c0.769,3.191,0,8.144,0,11.76
			c0,26.472,0,57.428,0,82.8c-22.5,22.3-44.9,44.7-67.2,67.2c-24.079,0-56.691,0-82.8,0c-3.8,0-8.316,0.66-11.52,0
			C73.735,237.878,71.132,232.308,68.651,231.12z"/>
		<path fill-rule="evenodd" clip-rule="evenodd" fill="#F4CACA" d="M171.371,238.561c22.3-22.5,44.7-44.9,67.2-67.2
			C216.271,193.86,193.871,216.261,171.371,238.561z"/>
		<path fill-rule="evenodd" clip-rule="evenodd" fill="#D7A6A6" d="M231.131,68.64c-22.74-22.22-44.739-45.18-67.68-67.2
			c-31.601,0-63.2,0-94.8,0c0-0.08,0-0.16,0-0.24c31.44,0,62.88,0,94.32,0c3.488,1.834,6.049,5.328,8.88,8.16
			C191.4,28.91,211.565,48.725,231.131,68.64z"/>
		<path fill-rule="evenodd" clip-rule="evenodd" fill="#E78A8A" d="M1.451,68.64c22.3-22.5,44.7-44.9,67.2-67.2
			C46.351,23.94,23.951,46.34,1.451,68.64z"/>
		<path fill-rule="evenodd" clip-rule="evenodd" fill="#7E0000" d="M9.131,171.12c-1.369-2.517-6.573-4.52-7.44-7.68
			c-0.751-2.739,0-7.488,0-11.76c0-23.647,0-47.01,0-70.561c0-4.176-0.719-8.775,0-11.76c0.554-2.301,5.756-6.477,8.16-8.88
			c17.068-17.067,33.41-33.41,50.64-50.64c2.205-2.205,6.4-7.545,8.64-8.16c2.743-0.752,7.653,0,11.76,0c23.596,0,46.506,0,70.56,0
			c4.173,0,8.934-0.681,11.76,0c3.405,0.82,5.144,5.754,7.92,7.44c-0.204,0.044-0.227-0.094-0.24-0.24
			c-2.721,0.159-6.078-0.319-8.399,0.24c-0.558-0.163-0.643-0.798-1.2-0.96c-0.08,0-0.16,0-0.24,0
			c-23.652-0.435-52.396-0.24-78.24-0.24c-3.82,0-8.064-0.659-10.8,0c-2.352,0.567-6.058,5.337-8.4,7.68
			c-16.564,16.564-31.486,31.486-48,48c-2.172,2.172-7.098,6.037-7.68,8.16c-0.75,2.732,0,7.502,0,11.28c0,22.562,0,43.247,0,66.24
			c0,3.906-0.671,8.257,0,11.04c0.544,2.256,5.583,6.303,7.68,8.4c7.978,7.978,16.31,16.158,24,23.76
			c10.42,10.78,21.26,21.14,31.68,31.92c-20.98-20.46-41.221-41.66-62.4-61.92C9.041,165.291,8.585,168.706,9.131,171.12z"/>
		<path fill-rule="evenodd" clip-rule="evenodd" fill="#864141" d="M68.651,231.12c-19.505-19.854-39.117-39.117-59.04-59.04
			c-2.236-2.235-7.571-6.437-8.16-8.88c-0.71-2.946,0-7.738,0-11.76c0-28.011,0-55.5,0-82.8c22.5-22.3,44.9-44.7,67.2-67.2
			c31.6,0,63.2,0,94.8,0c22.94,22.021,44.939,44.98,67.68,67.2c0,0.24,0,0.48,0,0.72c0,31.44,0,62.88,0,94.32
			c0,0.08,0,0.159,0,0.239c-22.499,22.3-44.9,44.701-67.2,67.2c-0.08,0-0.159,0-0.239,0c-31.521,0-63.04,0-94.561,0
			C68.971,231.12,68.811,231.12,68.651,231.12z M171.131,9.12c-2.776-1.686-4.515-6.62-7.92-7.44c-2.826-0.681-7.587,0-11.76,0
			c-24.054,0-46.964,0-70.56,0c-4.107,0-9.017-0.752-11.76,0c-2.24,0.614-6.435,5.955-8.64,8.16
			c-17.23,17.23-33.572,33.573-50.64,50.64c-2.404,2.404-7.605,6.58-8.16,8.88c-0.719,2.984,0,7.583,0,11.76
			c0,23.551,0,46.913,0,70.561c0,4.271-0.751,9.021,0,11.76c0.867,3.16,6.071,5.163,7.44,7.68
			c17.187,17.276,34.724,34.964,52.32,52.561c2.115,2.114,5.726,6.671,7.92,7.2c2.987,0.72,7.735,0,11.76,0
			c24.157,0,46.44,0,70.561,0c3.781,0,8.864,0.794,11.76,0c1.178-0.323,2.942-2.703,4.32-4.08
			c18.406-18.407,36.513-36.513,54.96-54.961c2.395-2.395,7.581-6.068,8.16-8.88c0.657-3.194,0-7.619,0-11.52
			c0-24.094,0-46.759,0-70.56c0-3.898,0.751-9.021,0-11.76c-0.554-2.018-5.182-5.661-7.2-7.68
			C205.674,43.422,188.855,26.755,171.131,9.12z"/>
		<path fill-rule="evenodd" clip-rule="evenodd" fill="#D7A6A6" d="M71.531,8.4c0-0.08,0-0.16,0-0.24c29.84,0,59.68,0,89.52,0
			c0.08,0,0.16,0,0.24,0c0.07,0.489,0.649,0.471,0.72,0.96c10.46,10.66,21.021,21.22,31.681,31.68
			c9.979,10.18,20.06,20.26,30.24,30.24c0.194,0.046,0.238,0.241,0.479,0.24c0,0.08,0,0.16,0,0.24c0,8.56,0,17.12,0,25.68
			c-0.08,0-0.16,0-0.24,0c0-8.24,0-16.48,0-24.72c-1.761-3.415-5.028-5.749-7.68-8.4c-16.021-16.021-31.492-31.492-48-48
			c-2.215-2.214-5.725-7.093-8.16-7.68c-2.835-0.683-7.377,0-11.28,0C123.393,8.4,97.102,8.4,71.531,8.4z"/>
		<path fill-rule="evenodd" clip-rule="evenodd" fill="#FA9494" d="M215.771,95.76c-2.453-1.352-10.928-2.885-15.601-3.6
			c-5.647-0.864-12.227-0.768-17.04-1.92c-1.46-0.35-4.346-2.015-6.479-2.16c-2.891-0.197-5.571,1.368-7.44,1.68
			c-7.449,1.244-14.668-0.507-21.6,0.96c-0.479-16.141,3.508-36.258-10.801-38.16c-2.851-0.379-5.008,0.21-7.439,0.72
			c-0.156-1.284,0.315-3.195-0.24-4.08c0-0.08,0-0.16,0-0.24c-0.186-5.734-4.32-7.519-9.12-8.64c-0.637-0.003-1.371,0.09-1.68-0.24
			c-2.624-0.462-6.839-0.441-8.88,0.48c-0.08,0-0.16,0-0.24,0c-5.958,1.562-9.94,5.1-9.6,12.96c-1.195-0.084-1.9-0.66-3.36-0.48
			c-0.08,0-0.16,0-0.24,0c-9.481-0.841-16.709,2.651-16.08,12.72c-1.122,0.193-3.362-0.603-5.28-0.24
			c-11.477,2.168-10.053,25.432-11.76,37.92c-16.102,0.907-32.235-0.879-45.36-2.88c0-8.4,0-16.8,0-25.2
			c19.38-19.181,38.66-38.459,57.84-57.84c21.982,0,47.696,0,71.04,0c3.532,0,7.628-0.591,10.08,0
			c2.093,0.504,5.733,5.014,7.68,6.96c17.104,17.104,33.807,33.957,50.641,50.88c0.159,6.48-0.32,13.6,0.239,19.68
			C214.978,95.594,215.744,95.307,215.771,95.76z"/>
		<path fill-rule="evenodd" clip-rule="evenodd" fill="#D7A6A6" d="M17.531,75.36c19.181-19.381,38.459-38.66,57.84-57.84
			C56.19,36.901,36.911,56.18,17.531,75.36z"/>
		<path fill-rule="evenodd" clip-rule="evenodd" fill="#D7A6A6" d="M8.171,71.52c0.08,0,0.16,0,0.24,0
			c0.316,8.964-0.634,19.194,0.48,27.36c-0.388,0.067-0.413-0.227-0.72-0.24C8.171,89.6,8.171,80.56,8.171,71.52z"/>
		<path fill-rule="evenodd" clip-rule="evenodd" fill="#E78A8A" d="M8.171,71.52c21.02-21.22,42.14-42.34,63.36-63.36
			c0,0.08,0,0.16,0,0.24c-21.14,20.94-42.18,41.98-63.12,63.12C8.331,71.52,8.251,71.52,8.171,71.52z"/>
		<path fill-rule="evenodd" clip-rule="evenodd" fill="#7E0000" d="M161.291,224.4c20.94-21.141,41.979-42.18,63.12-63.12
			C203.471,182.421,182.432,203.46,161.291,224.4z"/>
		<path fill-rule="evenodd" clip-rule="evenodd" fill="#864141" d="M223.932,71.04c-9.98-10.18-20.061-20.26-30.24-30.24
			c-10.46-10.66-21.021-21.22-31.681-31.68c-0.07-0.489-0.649-0.471-0.72-0.96c0.558,0.162,0.643,0.797,1.2,0.96
			c20.5,20.86,41.42,41.3,61.92,62.16C224.17,71.281,224.126,71.086,223.932,71.04z"/>
		<path fill-rule="evenodd" clip-rule="evenodd" fill="#8C8C8C" d="M193.691,40.8c-10.66-10.46-21.221-21.02-31.681-31.68
			C172.671,19.58,183.231,30.14,193.691,40.8z"/>
		<path fill-rule="evenodd" clip-rule="evenodd" fill="#E78A8A" d="M120.011,40.32c4.8,1.121,8.935,2.906,9.12,8.64
			C128.663,43.508,124.528,41.723,120.011,40.32z"/>
		<path fill-rule="evenodd" clip-rule="evenodd" fill="#E78A8A" d="M109.451,40.56c2.041-0.921,6.256-0.942,8.88-0.48
			C115.179,40.048,112,39.989,109.451,40.56z"/>
		<path fill-rule="evenodd" clip-rule="evenodd" fill="#E78A8A" d="M96.251,53.04c1.46-0.18,2.165,0.396,3.36,0.48
			c-0.34-7.86,3.642-11.398,9.6-12.96c-5.621,1.899-9.887,5.153-9.36,13.2C98.59,53.581,97.355,53.376,96.251,53.04z"/>
		<path fill-rule="evenodd" clip-rule="evenodd" fill="#E78A8A" d="M17.531,100.56c13.125,2.001,29.258,3.788,45.36,2.88
			c1.707-12.489,0.284-35.752,11.76-37.92c1.918-0.362,4.158,0.434,5.28,0.24c-0.629-10.069,6.599-13.561,16.08-12.72
			c-10.089-0.329-16.547,2.973-15.84,13.44c-12.818-4.693-15.033,12.769-16.08,24.72c-0.321,3.665-1.568,9.526-0.72,11.52
			c0.3,0.706-0.438,0.843,1.44,0.72c-0.03,0.53-1.018,0.102-1.44,0.24c-0.08,0-0.16,0-0.24,0c-16.136,0.895-31.692-0.541-45.36-2.88
			c-0.438,13.424-0.24,27.54-0.24,41.76c0,4.13-0.896,10.204,0,13.92c0.499,2.068,5.005,5.725,6.96,7.68
			c16.857,16.856,34.345,34.194,50.88,50.641c26.64,0.399,54.96,0.399,81.6,0c19.581-18.98,38.859-38.26,57.841-57.841
			c0.399-10.479,0.399-22.64,0-33.12c0-9.439,0-18.879,0-28.32c-9.754-2.49-21.417-4.338-32.4-4.8
			c-0.204,0.044-0.227-0.094-0.24-0.24c-1.736-2.411-9.577-2.94-12.479-0.48c-0.24,0-0.48,0-0.721,0
			c-7.449,0.15-14.855,0.345-21.6,1.2c-0.08,0-0.16,0-0.24,0c-0.16,0-0.319,0-0.479,0c1.31-1.612,0.72-4.004,0.72-6
			c0-14.283,2.369-30.537-10.32-32.4c-3.037-0.446-5.273,0.303-7.92,0.72c0-1.44,0-2.88,0-4.32c0.556,0.885,0.084,2.796,0.24,4.08
			c2.432-0.51,4.589-1.099,7.439-0.72c14.309,1.902,10.322,22.019,10.801,38.16c6.932-1.467,14.15,0.284,21.6-0.96
			c1.869-0.312,4.55-1.877,7.44-1.68c2.134,0.146,5.02,1.811,6.479,2.16c4.813,1.152,11.393,1.056,17.04,1.92
			c4.673,0.715,13.147,2.249,15.601,3.6c2.966,0.009,6.31,2.149,8.399,1.44c0.08,0,0.16,0,0.24,0
			c-0.44,18.559-0.24,36.186-0.24,55.44c0,2.674,0.52,5.766,0,7.92c-0.561,2.326-5.438,6.157-7.68,8.399
			c-16.084,16.084-31.35,31.35-47.521,47.521c-2.146,2.146-6.239,7.153-8.159,7.68c-2.704,0.742-7.613,0-11.28,0
			c-22.642,0-43.846,0-66.48,0c-3.797,0-8.221,0.68-11.04,0c-2.422-0.583-6.115-5.395-8.4-7.68
			c-16.201-16.2-31.592-31.592-47.76-47.76c-2.04-2.04-7.122-6.125-7.68-8.16c-1.022-3.727,0-11.359,0-15.601
			c0-15.724,0-30.485,0-46.32c0.307,0.013,0.332,0.308,0.72,0.24C11.666,99.545,14.374,100.277,17.531,100.56z"/>
		<path fill-rule="evenodd" clip-rule="evenodd" fill="#8C8C8C" d="M109.451,40.56c2.549-0.571,5.728-0.512,8.88-0.48
			c0.309,0.331,1.042,0.237,1.68,0.24c4.518,1.402,8.652,3.188,9.12,8.64c0,0.08,0,0.16,0,0.24c0,1.44,0,2.88,0,4.32
			c2.646-0.417,4.883-1.166,7.92-0.72c12.689,1.863,10.32,18.117,10.32,32.4c0,1.996,0.59,4.388-0.72,6
			c-1.802,0.438-4.291,0.189-5.761,0.96c-0.08,0-0.159,0-0.239,0c0-0.16,0-0.32,0-0.48c0.56-5.521,0.08-12.08,0.239-18
			c0-2.32,0-4.64,0-6.96c-0.116-3.244-0.982-5.738-3.359-6.72c-0.007-0.233-0.294-0.186-0.48-0.24
			c-0.753-0.818-3.688-0.562-4.8-0.24c-1.439,0.561-2.887,1.114-2.88,3.12c-0.397,0.243-0.261,1.02-0.48,1.44
			c-0.73,0.869-1.947,1.252-3.12,1.68c0.159,2.082-0.317,4.798,0.24,6.48c0,5.92,0,11.84,0,17.76c0.156,1.284-0.314,3.195,0.24,4.08
			c0,1.76,0,3.52,0,5.28c-0.08,0-0.16,0-0.24,0c0-1.68,0-3.36,0-5.04c-0.606-0.372-1.832,0.296-2.88,0.24
			c-0.554,4.086-0.084,9.196-0.24,13.68c-0.08,0-0.159,0-0.239,0c0-2.96,0-5.92,0-8.88c0-1.52,0-3.04,0-4.56c0-0.08,0-0.16,0-0.24
			c0.399-4,0.399-9.679,0-13.68c0-6,0-12,0-18c-0.16-4.56,0.319-9.759-0.24-13.92c0-0.16,0-0.32,0-0.48
			c-0.669-0.531-1.256-1.144-2.4-1.2c-1.605-1.037-5.678-0.88-7.92-0.48c-0.84-0.04-1.536,0.063-1.92,0.48
			c-5.508,0.433-3.544,8.046-3.84,14.4c-0.518,11.124-0.301,25.511,0,35.76c0,0.08,0,0.16,0,0.24s0,0.16,0,0.24
			c-0.167-0.188-1.339-0.534-1.44,0c-0.203,0.517-1.53-0.09-1.68,0.48c-0.714,4.085,0.235,9.835-0.48,13.92c0-4.56,0-9.12,0-13.68
			c0.56-10.8,0.08-22.64,0.24-33.84c-1.74-0.9-2.812-2.468-3.6-4.32c-2.213-0.815-6.305-1.527-8.88-0.48
			c-0.689-0.05-1.219,0.061-1.44,0.48c-0.979,0.141-1.714,0.526-1.92,1.44c-0.553,0.647-0.085,2.315-0.24,3.36
			c-0.556,0.964-0.083,2.957-0.24,4.32c-0.706,9.854-0.658,21.742-0.24,31.92c0.713,4.368-0.959,10.548,0,14.4
			c0.113,0.456,0.172,0.5,0.72,0.48c-1.279,1.275-0.916-0.979-0.96-2.64c-0.087-3.32,0.068-9.71,0-12.24
			c-0.831-0.655-1.717,0.237-2.88,0c-0.194,0.046-0.239,0.241-0.48,0.24c0-0.08,0-0.16,0-0.24c0.56-7.68,0.08-16.4,0.24-24.48
			c-2.104-1.416-3.595-3.445-6-4.56c-0.006-0.233-0.293-0.186-0.48-0.24c-2.858-0.362-4.317,7.11-4.8,10.8
			c-0.53,0.03-0.102,1.018-0.24,1.44c-0.41,0.87-0.505,2.055-0.48,3.36c-0.544,0.255-0.091,1.508-0.24,2.16
			c-0.667,4.053-0.884,8.557-0.96,13.2c-0.194-0.167-0.658-0.374-0.72,0c-0.32,0-0.64,0-0.96,0c-0.729,0.15-2.067-0.307-2.4,0.24
			c-0.32,0-0.64,0-0.96,0c-1.878,0.123-1.14-0.014-1.44-0.72c-0.849-1.994,0.399-7.855,0.72-11.52
			c1.047-11.952,3.262-29.414,16.08-24.72c-0.707-10.467,5.75-13.769,15.84-13.44c0.08,0,0.16,0,0.24,0
			c1.104,0.336,2.339,0.541,3.6,0.72c-0.527-8.047,3.739-11.301,9.36-13.2C109.291,40.56,109.371,40.56,109.451,40.56z"/>
		<path fill-rule="evenodd" clip-rule="evenodd" fill="#BEBEBE" d="M137.531,60c2.377,0.982,3.243,3.477,3.359,6.72
			c-0.08,0-0.159,0-0.239,0C140.601,63.49,139.431,61.38,137.531,60z"/>
		<path fill-rule="evenodd" clip-rule="evenodd" fill="#BEBEBE" d="M129.371,62.64c-0.007-2.006,1.44-2.559,2.88-3.12
			c0,0.08,0,0.16,0,0.24c-1.174,0.667-2.752,0.928-2.64,2.88C129.531,62.64,129.451,62.64,129.371,62.64z"/>
		<path fill-rule="evenodd" clip-rule="evenodd" fill="#BEBEBE" d="M126.011,72.24c-0.558-1.682-0.081-4.398-0.24-6.48
			c1.173-0.428,2.39-0.811,3.12-1.68c-0.227,1.373-1.963,1.236-2.88,1.92C126.011,68.08,126.011,70.16,126.011,72.24z"/>
		<path fill-rule="evenodd" clip-rule="evenodd" fill="#BEBEBE" d="M106.331,97.44c-0.301-10.249-0.518-24.636,0-35.76
			c0.295-6.354-1.668-13.967,3.84-14.4c-5.103,0.961-3.297,8.223-3.6,14.64C106.05,72.953,106.464,86.787,106.331,97.44z"/>
		<path fill-rule="evenodd" clip-rule="evenodd" fill="#864141" d="M104.891,97.92c0.101-0.534,1.273-0.188,1.44,0
			c0.156,4.644-0.314,9.914,0.24,14.16c-1.104-3.775-0.171-9.589-0.48-14.16C105.691,97.92,105.291,97.92,104.891,97.92z"/>
		<path fill-rule="evenodd" clip-rule="evenodd" fill="#BEBEBE" d="M90.491,60c2.575-1.047,6.667-0.335,8.88,0.48
			c0.788,1.852,1.859,3.42,3.6,4.32c-0.08,0-0.16,0-0.24,0c-1.544-0.696-2.828-1.652-3.12-3.6
			C97.691,59.628,93.717,59.556,90.491,60z"/>
		<path fill-rule="evenodd" clip-rule="evenodd" fill="#BEBEBE" d="M87.131,61.92c0.206-0.914,0.941-1.299,1.92-1.44
			C88.386,60.935,87.735,61.404,87.131,61.92z"/>
		<path fill-rule="evenodd" clip-rule="evenodd" fill="#BEBEBE" d="M77.051,72.48c2.405,1.115,3.896,3.144,6,4.56
			c-0.16,8.08,0.32,16.8-0.24,24.48c0-8.08,0-16.16,0-24.24C80.921,75.65,79.043,74.008,77.051,72.48z"/>
		<path fill-rule="evenodd" clip-rule="evenodd" fill="#BEBEBE" d="M71.771,83.04c0.483-3.689,1.941-11.162,4.8-10.8
			C73.03,73.899,73.119,79.188,71.771,83.04z"/>
		<path fill-rule="evenodd" clip-rule="evenodd" fill="#864141" d="M69.131,103.2c0.062-0.374,0.526-0.167,0.72,0
			c0,0.56,0,1.12,0,1.68s0,1.12,0,1.68c-0.08,0-0.16,0-0.24,0C69.345,105.546,70.176,103.435,69.131,103.2z"/>
		<path fill-rule="evenodd" clip-rule="evenodd" fill="#E78A8A" d="M223.932,71.04c-10.181-9.98-20.261-20.06-30.24-30.24
			C203.871,50.78,213.951,60.86,223.932,71.04z"/>
		<path fill-rule="evenodd" clip-rule="evenodd" fill="#BEBEBE" d="M122.651,108.24c0.08,0,0.159,0,0.239,0c0,0.08,0,0.16,0,0.24
			c0,1.36,0,2.72,0,4.08c0,0.08,0,0.16,0,0.24c-0.573-0.146-1.741,0.301-1.92-0.24C123.745,113.334,122.303,109.892,122.651,108.24z
			"/>
		<path fill-rule="evenodd" clip-rule="evenodd" fill="#F4CACA" d="M106.331,97.92c0-0.08,0-0.16,0-0.24
			c0.56,4.161,0.08,9.36,0.24,13.92c0.4,0,0.8,0,1.2,0c0,0.08,0,0.16,0,0.24c-0.38,0.02-0.916-0.116-0.96,0.24
			c-0.08,0-0.16,0-0.24,0C106.017,107.834,106.487,102.564,106.331,97.92z"/>
		<path fill-rule="evenodd" clip-rule="evenodd" fill="#BEBEBE" d="M152.651,123.36c1.49-1.021-1.166,2.347-2.4,2.399
			C151.02,124.929,152.041,124.351,152.651,123.36z"/>
		<path fill-rule="evenodd" clip-rule="evenodd" fill="#BEBEBE" d="M171.371,96.48c0.044,0.205-0.094,0.227-0.24,0.24
			c0.046,0.272,0.241,0.133,0.24,0c-0.548,0.815-2.235,2.562-3.6,3.36C168.871,98.78,170.071,97.58,171.371,96.48z"/>
		<path fill-rule="evenodd" clip-rule="evenodd" fill="#8C8C8C" d="M177.611,101.04c0-1.76,0-3.52,0-5.28
			c-0.57-0.87-2.55-0.331-3.84-0.48c0.937-0.836,3.604-0.585,4.319,0.24C178.089,97.518,178.198,99.627,177.611,101.04z"/>
		<path fill-rule="evenodd" clip-rule="evenodd" fill="#F4CACA" d="M82.091,119.04c1.251-4.828-0.139-12.299,0.72-17.52
			c0,0.08,0,0.16,0,0.24c0,5.6,0,11.2,0,16.8C82.706,118.855,82.504,119.053,82.091,119.04z"/>
		<path fill-rule="evenodd" clip-rule="evenodd" fill="#F4CACA" d="M76.091,126.721c-0.742-0.299-1.288-0.793-1.68-1.44
			c0.452-1.148,1.373-1.827,2.4-2.4c-0.386,0.9-2.132,1.701-1.92,2.4c0.678,0.602,1.426,1.134,1.92,1.92
			C76.496,127.115,76.434,126.777,76.091,126.721z"/>
		<path fill-rule="evenodd" clip-rule="evenodd" fill="#8C8C8C" d="M80.171,124.32c-0.748,1.252-1.773,2.228-2.88,3.12
			c-0.754,0.113-0.981-0.3-1.2-0.72c0.343,0.057,0.405,0.395,0.72,0.479C78.308,126.617,78.873,125.102,80.171,124.32z"/>
		<path fill-rule="evenodd" clip-rule="evenodd" fill="#BEBEBE" d="M126.251,108.24c0.08,0,0.16,0,0.24,0
			c0.193,1.887-0.55,4.71,0.72,5.52c-0.547,0.067-0.902-0.058-0.96-0.48C126.251,111.6,126.251,109.92,126.251,108.24z"/>
		<path fill-rule="evenodd" clip-rule="evenodd" fill="#8C8C8C" d="M163.931,231.12c22.3-22.499,44.701-44.9,67.2-67.2
			C208.831,186.42,186.431,208.82,163.931,231.12z"/>
		<path fill-rule="evenodd" clip-rule="evenodd" fill="#864141" d="M224.411,97.2c0-8.56,0-17.12,0-25.68
			c0.56,8.24,0.08,17.52,0.24,26.16c-0.561,20.64-0.08,42.321-0.24,63.36c0,0.08,0,0.16,0,0.24
			c-21.141,20.94-42.18,41.979-63.12,63.12c-0.08,0-0.16,0-0.24,0c-29.84,0-59.68,0-89.52,0c-0.08,0-0.16,0-0.24,0
			c-10.42-10.78-21.26-21.14-31.68-31.92c-7.69-7.602-16.022-15.782-24-23.76c-2.097-2.098-7.136-6.145-7.68-8.4
			c-0.671-2.783,0-7.134,0-11.04c0-22.993,0-43.678,0-66.24c0-3.778-0.75-8.547,0-11.28c0.583-2.123,5.508-5.988,7.68-8.16
			c16.514-16.514,31.436-31.436,48-48c2.342-2.343,6.048-7.113,8.4-7.68c2.736-0.659,6.98,0,10.8,0
			c25.844,0,54.587-0.195,78.24,0.24c-29.84,0-59.68,0-89.52,0c-21.22,21.02-42.34,42.14-63.36,63.36c0,9.04,0,18.08,0,27.12
			c0,15.835,0,30.596,0,46.32c0,4.241-1.022,11.874,0,15.601c0.558,2.035,5.64,6.12,7.68,8.16
			c16.168,16.168,31.56,31.56,47.76,47.76c2.285,2.285,5.978,7.097,8.4,7.68c2.819,0.68,7.243,0,11.04,0c22.634,0,43.839,0,66.48,0
			c3.667,0,8.576,0.742,11.28,0c1.92-0.526,6.013-5.533,8.159-7.68c16.171-16.171,31.437-31.437,47.521-47.521
			c2.242-2.242,7.119-6.073,7.68-8.399c0.52-2.154,0-5.246,0-7.92C224.171,133.386,223.971,115.759,224.411,97.2z"/>
		<path fill-rule="evenodd" clip-rule="evenodd" fill="#7E0000" d="M162.731,96c1.189-1.69,2.558-3.202,4.319-4.32
			C165.643,93.152,164.24,94.63,162.731,96z"/>
		<path fill-rule="evenodd" clip-rule="evenodd" fill="#5E0000" d="M158.651,101.76c0.478-1.123,1.118-2.082,1.92-2.88
			C160.094,100.003,159.452,100.962,158.651,101.76z"/>
		<path fill-rule="evenodd" clip-rule="evenodd" fill="#DC1212" d="M158.651,101.76c-3.779,5.901-6.623,12.737-11.28,17.76
			c-0.08,0-0.16,0-0.24,0c0-3.04,0-6.08,0-9.12c0.56-3.281,0.081-7.6,0.24-11.28c0-2.64,0-5.28,0-7.92
			c6.744-0.855,14.15-1.05,21.6-1.2c-0.044,0.204,0.094,0.227,0.24,0.24c-0.712,0.488-1.252,1.148-2.16,1.44
			c-1.762,1.118-3.13,2.63-4.319,4.32c-0.544,1.137-1.366,1.995-2.16,2.88C159.77,99.679,159.129,100.638,158.651,101.76z"/>
		<path fill-rule="evenodd" clip-rule="evenodd" fill="#5E0000" d="M168.971,142.08c-0.199,1.321-0.842,2.198-1.439,3.12
			C167.73,143.88,168.373,143.002,168.971,142.08z"/>
		<path fill-rule="evenodd" clip-rule="evenodd" fill="#5E0000" d="M158.411,163.2c0.526-1.313,0.994-2.686,1.92-3.6
			C159.805,160.914,159.336,162.286,158.411,163.2z"/>
		<path fill-rule="evenodd" clip-rule="evenodd" fill="#5E0000" d="M156.731,166.32c0.184-0.696,0.379-1.381,0.96-1.68
			C157.508,165.337,157.312,166.021,156.731,166.32z"/>
		<path fill-rule="evenodd" clip-rule="evenodd" fill="#5E0000" d="M154.091,170.4c0.208-0.752,0.595-1.325,1.2-1.68
			C155.083,169.473,154.696,170.046,154.091,170.4z"/>
		<path fill-rule="evenodd" clip-rule="evenodd" fill="#7E0000" d="M148.331,177.36c1.054-1.507,2.279-2.841,3.6-4.08
			C150.94,174.85,149.75,176.219,148.331,177.36z"/>
		<path fill-rule="evenodd" clip-rule="evenodd" fill="#DC1212" d="M140.171,184.561c0.998-1.002,2.093-1.907,3.36-2.641
			c1.147-0.532,1.872-1.487,2.64-2.399c0.619-0.82,1.34-1.541,2.16-2.16c1.419-1.142,2.609-2.511,3.6-4.08
			c0.488-1.192,1.366-1.994,2.16-2.88c0.605-0.354,0.992-0.928,1.2-1.68c0.227-1.054,0.897-1.663,1.44-2.4
			c0.58-0.3,0.776-0.983,0.96-1.68c0.106-0.613,0.336-1.104,0.72-1.44c0.925-0.914,1.394-2.286,1.92-3.6
			c0.666-1.734,1.466-3.334,2.4-4.8c1.065-1.335,1.865-2.935,2.399-4.801c0.667-1.733,1.466-3.334,2.4-4.8
			c0.598-0.922,1.24-1.799,1.439-3.12c0.107-0.613,0.337-1.104,0.721-1.439c0.451-0.589,0.905-1.175,0.96-2.16
			c3.118-7.121,6.192-14.287,9.12-21.6c0.568-0.632,0.789-1.61,0.96-2.64c1.282-4.558,2.733-8.946,3.6-13.92
			c0.399-1.364,0.399-4.396,0-5.76c-0.541-1.378-0.961-2.879-1.92-3.84c10.983,0.461,22.646,2.31,32.4,4.8c0,9.44,0,18.88,0,28.32
			c0,11.04,0,22.08,0,33.12c-18.981,19.581-38.26,38.86-57.841,57.841c-27.2,0-54.399,0-81.6,0
			c-16.535-16.446-34.023-33.784-50.88-50.641c-1.955-1.955-6.461-5.611-6.96-7.68c-0.896-3.716,0-9.79,0-13.92
			c0-14.221-0.198-28.336,0.24-41.76c13.667,2.339,29.224,3.775,45.36,2.88c0,1.68,0,3.36,0,5.04c-0.4,5.601-0.4,12.879,0,18.48
			c0,1.12,0,2.24,0,3.36c0.15,0.729-0.307,2.067,0.24,2.399c-0.018,3.378,0.234,6.485,0.72,9.36c0.545,0.255,0.091,1.509,0.24,2.16
			c0.164,2.876,0.506,5.573,1.2,7.92c0.02,1.42,0.242,2.638,0.72,3.6c0.164,1.837,0.56,3.44,1.2,4.801
			c0.617,1.383,1.063,2.937,1.44,4.56c0.076,0.804,0.247,1.513,0.72,1.92c0.53,0.83,1,1.72,1.2,2.88
			c0.216,1.224,0.695,2.185,1.44,2.88c0.233,0.007,0.186,0.294,0.24,0.48c0.184,0.696,0.38,1.38,0.96,1.68
			c1.4,1.801,2.749,3.652,4.08,5.521c0.573,1.027,1.252,1.948,2.4,2.399c0.485,0.556,0.798,1.282,1.68,1.44
			c1.159,0.602,2.221,1.299,3.12,2.16c1.899,1.38,4.093,2.467,6.72,3.12c3.998,1.682,9.066,2.293,14.4,2.64c0.8,0,1.6,0,2.4,0
			c3.361,0.399,8.399,0.399,11.76,0c2.914-0.046,5.356-0.563,7.44-1.44c0.296-0.344,0.825-0.454,1.439-0.479
			c1.613-0.307,2.956-0.884,4.08-1.68c0.337-0.384,0.827-0.613,1.44-0.721c0.696-0.184,1.38-0.379,1.68-0.96
			c0.36-0.28,0.587-0.693,1.2-0.72C138.488,186.078,139.447,185.437,140.171,184.561z"/>
		<path fill-rule="evenodd" clip-rule="evenodd" fill="#7E0000" d="M137.291,186.48c0.799-0.802,1.758-1.442,2.88-1.92
			C139.447,185.437,138.488,186.078,137.291,186.48z"/>
		<path fill-rule="evenodd" clip-rule="evenodd" fill="#5E0000" d="M134.411,188.16c0.3-0.58,0.983-0.776,1.68-0.96
			C135.791,187.781,135.107,187.977,134.411,188.16z"/>
		<path fill-rule="evenodd" clip-rule="evenodd" fill="#5E0000" d="M128.891,190.561c1.254-0.667,2.567-1.273,4.08-1.68
			C131.847,189.677,130.504,190.254,128.891,190.561z"/>
		<path fill-rule="evenodd" clip-rule="evenodd" fill="#5E0000" d="M84.731,186.721c2.283,0.997,4.46,2.1,6.72,3.12
			C88.824,189.188,86.63,188.101,84.731,186.721z"/>
		<path fill-rule="evenodd" clip-rule="evenodd" fill="#7E0000" d="M79.931,183.12c0.742,0.299,1.288,0.793,1.68,1.44
			C80.729,184.402,80.416,183.676,79.931,183.12z"/>
		<path fill-rule="evenodd" clip-rule="evenodd" fill="#5E0000" d="M77.531,180.721c0.901,0.699,1.701,1.499,2.4,2.399
			C78.783,182.669,78.104,181.748,77.531,180.721z"/>
		<path fill-rule="evenodd" clip-rule="evenodd" fill="#7E0000" d="M72.491,173.521c0.581,0.3,0.776,0.983,0.96,1.68
			C72.871,174.9,72.675,174.217,72.491,173.521z"/>
		<path fill-rule="evenodd" clip-rule="evenodd" fill="#8C8C8C" d="M85.691,179.521c-1.761-1.279-3.21-2.87-4.56-4.561
			C82.787,176.345,84.372,177.799,85.691,179.521z"/>
		<path fill-rule="evenodd" clip-rule="evenodd" fill="#8C8C8C" d="M145.691,170.641c-1.901,2.259-3.981,4.339-6.24,6.239
			C141.353,174.622,143.388,172.497,145.691,170.641z"/>
		<path fill-rule="evenodd" clip-rule="evenodd" fill="#7E0000" d="M70.811,170.16c0.615,0.825,1.094,1.786,1.44,2.88
			C71.506,172.345,71.027,171.384,70.811,170.16z"/>
		<path fill-rule="evenodd" clip-rule="evenodd" fill="#7E0000" d="M146.171,179.521c-0.768,0.912-1.492,1.867-2.64,2.399
			C144.193,180.903,145.211,180.24,146.171,179.521z"/>
		<path fill-rule="evenodd" clip-rule="evenodd" fill="#7E0000" d="M162.731,154.801c0.666-1.734,1.466-3.334,2.399-4.801
			C164.597,151.866,163.797,153.466,162.731,154.801z"/>
		<path fill-rule="evenodd" clip-rule="evenodd" fill="#7E0000" d="M169.691,140.641c0.054-0.986,0.508-1.572,0.96-2.16
			C170.597,139.466,170.143,140.052,169.691,140.641z"/>
		<path fill-rule="evenodd" clip-rule="evenodd" fill="#864141" d="M74.891,125.28c-0.212-0.699,1.534-1.5,1.92-2.4
			c0.315-0.084,0.377-0.422,0.72-0.479C76.793,123.503,75.628,124.178,74.891,125.28z"/>
		<path fill-rule="evenodd" clip-rule="evenodd" fill="#864141" d="M82.811,101.76c0.241,0,0.286-0.194,0.48-0.24
			c-0.716,5.124,0.237,11.917-0.48,17.04C82.811,112.96,82.811,107.36,82.811,101.76z"/>
		<path fill-rule="evenodd" clip-rule="evenodd" fill="#BEBEBE" d="M128.411,139.44c-0.955,1.605-2.32,2.799-3.84,3.84
			C125.751,141.9,127.031,140.62,128.411,139.44z"/>
		<path fill-rule="evenodd" clip-rule="evenodd" fill="#864141" d="M122.651,140.641c1.02-1.221,2.14-2.341,3.359-3.36
			C124.991,138.501,123.871,139.62,122.651,140.641z"/>
		<path fill-rule="evenodd" clip-rule="evenodd" fill="#FFFFFF" d="M120.011,47.28c1.145,0.056,1.731,0.669,2.4,1.2
			c0,0.16,0,0.32,0,0.48c0,4.64,0,9.28,0,13.92c0.159,5.92-0.32,12.48,0.24,18c0,4.56,0,9.12,0,13.68c0,0.08,0,0.16,0,0.24
			c-0.399,0.966-0.399,3.594,0,4.56c0,2.96,0,5.92,0,8.88c-0.349,1.651,1.094,5.094-1.681,4.32c-1.55-0.129-3.231-0.128-4.56-0.48
			c-1.989-1.051-5.87-0.209-8.64-0.48c-0.4,0-0.8,0-1.2,0c-0.16-4.56,0.32-9.759-0.24-13.92c0-0.08,0-0.16,0-0.24
			c0.133-10.653-0.281-24.488,0.24-35.521c0.303-6.417-1.503-13.678,3.6-14.64c0.384-0.417,1.08-0.52,1.92-0.48
			C114.915,46.777,117.807,46.685,120.011,47.28z"/>
		<path fill-rule="evenodd" clip-rule="evenodd" fill="#F4CACA" d="M132.251,59.52c1.112-0.322,4.047-0.578,4.8,0.24
			c-1.287-0.293-3.538-0.424-4.8,0C132.251,59.68,132.251,59.6,132.251,59.52z"/>
		<path fill-rule="evenodd" clip-rule="evenodd" fill="#5E0000" d="M224.411,71.52c0-0.08,0-0.16,0-0.24
			c-20.5-20.86-41.42-41.3-61.92-62.16c2.321-0.559,5.679-0.081,8.399-0.24c0.014,0.146,0.036,0.284,0.24,0.24
			c17.725,17.635,34.543,34.302,52.561,52.32c2.019,2.019,6.646,5.663,7.2,7.68c0.751,2.739,0,7.862,0,11.76
			c0,23.801,0,46.466,0,70.56c0,3.9,0.657,8.325,0,11.52c-0.579,2.812-5.766,6.485-8.16,8.88
			c-18.447,18.448-36.554,36.554-54.96,54.961c-1.378,1.377-3.143,3.757-4.32,4.08c-2.896,0.794-7.979,0-11.76,0
			c-24.12,0-46.403,0-70.561,0c-4.025,0-8.772,0.72-11.76,0c-2.195-0.529-5.805-5.086-7.92-7.2
			c-17.596-17.597-35.133-35.284-52.32-52.561c-0.546-2.414-0.09-5.829-0.24-8.64c21.18,20.26,41.42,41.46,62.4,61.92
			c0.08,0,0.16,0,0.24,0c29.28,0.4,60.241,0.4,89.52,0c0.08,0,0.16,0,0.24,0c21.141-20.94,42.18-41.979,63.12-63.12
			c0-0.08,0-0.16,0-0.24c0.56-20.64,0.08-42.32,0.24-63.36C224.491,89.04,224.971,79.76,224.411,71.52z"/>
		<path fill-rule="evenodd" clip-rule="evenodd" fill="#F4CACA" d="M86.891,69.6c-0.853,9.948-0.348,21.252-0.48,31.92
			c-0.418-10.178-0.466-22.066,0.24-31.92C86.731,69.6,86.811,69.6,86.891,69.6z"/>
		<path fill-rule="evenodd" clip-rule="evenodd" fill="#BEBEBE" d="M71.531,84.48c-0.012,1.269-0.107,2.453-0.48,3.36
			C71.025,86.535,71.121,85.35,71.531,84.48z"/>
		<path fill-rule="evenodd" clip-rule="evenodd" fill="#BEBEBE" d="M70.811,90c-0.196,5.004-0.886,9.515-0.72,14.88
			c-0.08,0-0.16,0-0.24,0c0-0.56,0-1.12,0-1.68C69.927,98.557,70.144,94.053,70.811,90z"/>
		<path fill-rule="evenodd" clip-rule="evenodd" fill="#F4CACA" d="M224.171,97.2c-2.09,0.709-5.434-1.431-8.399-1.44
			c-0.027-0.454-0.794-0.167-0.721-0.72c-0.159-6.48,0.32-13.6-0.239-19.68c-16.834-16.923-33.536-33.776-50.641-50.88
			c-1.946-1.946-5.587-6.456-7.68-6.96c-2.452-0.591-6.548,0-10.08,0c-23.344,0-49.058,0-71.04,0
			c-19.381,19.181-38.66,38.459-57.84,57.84c0,8.4,0,16.8,0,25.2c-3.157-0.283-5.865-1.015-8.64-1.68
			c-1.114-8.166-0.164-18.396-0.48-27.36c20.94-21.14,41.98-42.18,63.12-63.12c25.571,0,51.862,0,77.52,0
			c3.903,0,8.445-0.683,11.28,0c2.436,0.587,5.945,5.466,8.16,7.68c16.508,16.508,31.979,31.979,48,48
			c2.651,2.651,5.919,4.985,7.68,8.4C224.171,80.72,224.171,88.96,224.171,97.2z"/>
		<path fill-rule="evenodd" clip-rule="evenodd" fill="#F4CACA" d="M102.971,64.8c-0.16,11.2,0.32,23.04-0.24,33.84
			c0-11.28,0-22.56,0-33.84C102.811,64.8,102.891,64.8,102.971,64.8z"/>
		<path fill-rule="evenodd" clip-rule="evenodd" fill="#BEBEBE" d="M107.771,111.6c2.77,0.271,6.651-0.571,8.64,0.48
			c-0.48,0-0.96,0-1.44,0c-1.922-0.558-4.879-0.081-7.2-0.24C107.771,111.76,107.771,111.68,107.771,111.6z"/>
		<path fill-rule="evenodd" clip-rule="evenodd" fill="#FFFFFF" d="M90.491,60c3.227-0.444,7.201-0.372,9.12,1.2
			c0.292,1.948,1.576,2.904,3.12,3.6c0,11.28,0,22.56,0,33.84c0,4.56,0,9.12,0,13.68c-5.738,0.822-10.832,2.288-15.6,4.08
			c-0.548,0.02-0.606-0.024-0.72-0.48c-0.959-3.853,0.713-10.033,0-14.4c0.132-10.667-0.373-21.972,0.48-31.92c0-1.44,0-2.88,0-4.32
			c0.553-0.647,0.085-2.315,0.24-3.36c0.604-0.516,1.255-0.985,1.92-1.44C89.272,60.061,89.801,59.95,90.491,60z"/>
		<path fill-rule="evenodd" clip-rule="evenodd" d="M127.211,113.76c1.566,0.514,3.221,0.939,4.8,1.44
			c-0.265,1.015-0.591,1.969-0.96,2.88c-3.623-1.017-7.15-2.129-11.52-2.4c-0.255-0.544-1.508-0.091-2.16-0.24
			c-0.726-0.554-2.476-0.085-3.6-0.24c-1.444-0.399-4.556-0.399-6,0c-1.045,0.155-2.713-0.313-3.36,0.24
			c-0.651,0.148-1.905-0.305-2.16,0.24c-9.229,1.011-16.35,4.131-22.08,8.64c-1.298,0.781-1.863,2.297-3.36,2.88
			c-0.494-0.786-1.242-1.318-1.92-1.92c0.737-1.103,1.902-1.777,2.64-2.88c1.56-1.08,3.115-2.165,4.56-3.36
			c0.413,0.013,0.615-0.185,0.72-0.48c0.717-5.123-0.236-11.916,0.48-17.04c1.163,0.237,2.049-0.655,2.88,0
			c0.068,2.53-0.087,8.92,0,12.24c0.044,1.661-0.319,3.916,0.96,2.64c4.769-1.792,9.862-3.258,15.6-4.08
			c0.715-4.084-0.234-9.834,0.48-13.92c0.15-0.57,1.477,0.037,1.68-0.48c0.4,0,0.8,0,1.2,0c0.309,4.571-0.625,10.385,0.48,14.16
			c0.08,0,0.16,0,0.24,0c2.72,0,5.44,0,8.16,0c0.48,0,0.96,0,1.44,0c1.328,0.352,3.01,0.351,4.56,0.48
			c0.179,0.542,1.347,0.094,1.92,0.24c0-0.08,0-0.16,0-0.24c0.399-0.808,0.399-3.272,0-4.08c0-0.08,0-0.16,0-0.24
			c0.156-4.484-0.313-9.594,0.24-13.68c1.048,0.056,2.273-0.611,2.88-0.24c0,1.68,0,3.36,0,5.04c0.16,4.56-0.319,9.759,0.24,13.92
			C126.309,113.703,126.664,113.827,127.211,113.76z"/>
		<path fill-rule="evenodd" clip-rule="evenodd" fill="#7E0000" d="M179.771,116.88c0.17-1.03,0.392-2.008,0.96-2.64
			C180.561,115.27,180.34,116.249,179.771,116.88z"/>
		<path fill-rule="evenodd" clip-rule="evenodd" fill="#8C8C8C" d="M104.411,115.44c0.8,0,1.6,0,2.4,0
			c-1.044,0.556-3.117,0.083-4.56,0.24C102.506,115.136,103.76,115.589,104.411,115.44z"/>
		<path fill-rule="evenodd" clip-rule="evenodd" fill="#8C8C8C" d="M114.971,115.44c0.8,0,1.6,0,2.4,0
			c0.651,0.148,1.905-0.305,2.16,0.24C118.088,115.523,116.015,115.996,114.971,115.44z"/>
		<path fill-rule="evenodd" clip-rule="evenodd" fill="#5E0000" d="M147.131,110.4c0,3.04,0,6.08,0,9.12c0.08,0,0.16,0,0.24,0
			c-0.007,0.233-0.294,0.187-0.48,0.24C147.05,116.72,146.572,113.041,147.131,110.4z"/>
		<path fill-rule="evenodd" clip-rule="evenodd" fill="#864141" d="M69.611,112.08c0,4.16,0,8.32,0,12.48
			C69.211,120.959,69.211,115.681,69.611,112.08z"/>
		<path fill-rule="evenodd" clip-rule="evenodd" fill="#BEBEBE" d="M144.971,127.2c0.801,0,1.601,0,2.4,0
			C148.111,127.581,144.23,127.581,144.971,127.2z"/>
		<path fill-rule="evenodd" clip-rule="evenodd" fill="#BEBEBE" d="M69.851,126.96c0.557,1.442,0.082,3.918,0.24,5.761
			c-0.02,0.38,0.115,0.915-0.24,0.96c0-0.721,0-1.44,0-2.16c0-0.88,0-1.761,0-2.641C69.851,128.24,69.851,127.601,69.851,126.96z"/>
		<path fill-rule="evenodd" clip-rule="evenodd" fill="#8C8C8C" d="M70.091,132.721c0.555,0.805,0.084,2.636,0.24,3.84
			c0,0.72,0,1.439,0,2.16c-0.384-1.456-0.342-3.338-0.48-5.04C70.206,133.636,70.071,133.101,70.091,132.721z"/>
		<path fill-rule="evenodd" clip-rule="evenodd" fill="#BEBEBE" d="M70.331,136.561c0.556,1.044,0.083,3.117,0.24,4.56
			c-0.547-0.333-0.089-1.67-0.24-2.399C70.331,138,70.331,137.28,70.331,136.561z"/>
		<path fill-rule="evenodd" clip-rule="evenodd" fill="#5E0000" d="M63.371,132.96c0.374,2.986,0.592,6.128,0.72,9.36
			C63.605,139.445,63.354,136.338,63.371,132.96z"/>
		<path fill-rule="evenodd" clip-rule="evenodd" fill="#7E0000" d="M64.331,144.48c0.563,2.477,0.906,5.174,1.2,7.92
			C64.837,150.054,64.495,147.356,64.331,144.48z"/>
		<path fill-rule="evenodd" clip-rule="evenodd" fill="#5E0000" d="M65.531,152.4c0.419,1.021,0.641,2.239,0.72,3.6
			C65.773,155.038,65.551,153.82,65.531,152.4z"/>
		<path fill-rule="evenodd" clip-rule="evenodd" fill="#7E0000" d="M66.251,156c0.563,1.438,0.959,3.041,1.2,4.801
			C66.811,159.44,66.415,157.837,66.251,156z"/>
		<path fill-rule="evenodd" clip-rule="evenodd" d="M124.571,143.28c-5.961,7.239-9.586,16.813-11.76,27.84
			c-0.957-0.163-1.717-0.522-2.88-0.479c1.999-12.241,6.414-22.066,12.72-30c1.22-1.021,2.34-2.14,3.359-3.36
			c2.557-1.604,4.587-3.733,8.16-4.32c0.17,0.791,0.386,1.535,0.48,2.4c-1.918,1.522-4.546,2.335-6.24,4.08
			C127.031,140.62,125.751,141.9,124.571,143.28z"/>
		<path fill-rule="evenodd" clip-rule="evenodd" d="M70.571,141.12c1.171,13.63,4.208,25.392,10.56,33.84
			c1.35,1.69,2.799,3.281,4.56,4.561c3.983,3.057,8.892,5.188,15.36,5.76c1.309,0.451,3.011,0.51,4.8,0.48
			c0.411,0.549,1.832,0.088,2.64,0.239c4.081-0.159,8.8,0.319,12.48-0.239c8.126-0.995,13.438-4.802,18.48-8.881
			c2.259-1.9,4.339-3.98,6.24-6.239c7.514-9.688,12.784-21.182,18.239-32.641c5.434-11.413,10.627-23.577,13.681-36.96
			c0.587-1.413,0.478-3.522,0.479-5.52c-0.716-0.825-3.383-1.076-4.319-0.24c-1.21-0.01-1.569,0.832-2.4,1.2
			c-1.3,1.1-2.5,2.3-3.6,3.6c-5.831,6.97-9.401,16.199-15.12,23.28c-0.61,0.99-1.632,1.568-2.4,2.399
			c-1.026,0.334-1.66,1.061-2.88,1.2c-0.8,0-1.6,0-2.4,0c-2.23-0.569-3.74-1.859-4.56-3.84c0-0.96,0-1.92,0-2.88
			c0-0.08,0-0.16,0-0.24c0.558-1.442,0.082-3.918,0.24-5.76c0-2.88,0-5.76,0-8.64c0-0.08,0-0.16,0-0.24
			c0.56-3.921,0.08-8.88,0.239-13.2c1.47-0.771,3.959-0.521,5.761-0.96c0.16,0,0.319,0,0.479,0c0,2.64,0,5.28,0,7.92
			c0,3.76,0,7.52,0,11.28c-0.559,2.641-0.081,6.319-0.24,9.36c0.187-0.054,0.474-0.007,0.48-0.24
			c4.657-5.023,7.501-11.859,11.28-17.76c0.801-0.798,1.442-1.757,1.92-2.88c0.794-0.886,1.616-1.744,2.16-2.88
			c1.509-1.37,2.911-2.848,4.319-4.32c0.908-0.292,1.448-0.952,2.16-1.44c2.48,0,4.96,0,7.44,0c0.479,0,0.96,0,1.439,0
			c0.647,0.553,2.315,0.085,3.36,0.24c0.24,0,0.479,0,0.72,0c0.014,0.146,0.036,0.284,0.24,0.24c0.959,0.96,1.379,2.461,1.92,3.84
			c0,1.92,0,3.84,0,5.76c-0.866,4.974-2.317,9.362-3.6,13.92c-0.568,0.632-0.79,1.61-0.96,2.64c-2.928,7.313-6.002,14.479-9.12,21.6
			c-0.452,0.588-0.906,1.174-0.96,2.16c-0.384,0.336-0.613,0.826-0.721,1.439c-0.598,0.922-1.24,1.8-1.439,3.12
			c-0.935,1.466-1.733,3.066-2.4,4.8c-0.934,1.467-1.733,3.066-2.399,4.801c-0.935,1.466-1.734,3.065-2.4,4.8
			c-0.926,0.914-1.394,2.286-1.92,3.6c-0.384,0.337-0.613,0.827-0.72,1.44c-0.581,0.299-0.776,0.983-0.96,1.68
			c-0.543,0.737-1.214,1.347-1.44,2.4c-0.605,0.354-0.992,0.928-1.2,1.68c-0.794,0.886-1.672,1.688-2.16,2.88
			c-1.32,1.239-2.546,2.573-3.6,4.08c-0.82,0.619-1.541,1.34-2.16,2.16c-0.96,0.72-1.978,1.383-2.64,2.399
			c-1.268,0.733-2.362,1.639-3.36,2.641c-1.122,0.478-2.081,1.118-2.88,1.92c-0.613,0.026-0.84,0.439-1.2,0.72
			c-0.696,0.184-1.38,0.38-1.68,0.96c-0.613,0.107-1.104,0.337-1.44,0.721c-1.513,0.406-2.826,1.013-4.08,1.68
			c-0.614,0.025-1.144,0.136-1.439,0.479c-2.548,0.493-5.047,1.034-7.68,1.44c-3.68,0-7.36,0-11.04,0
			c-0.489-0.551-1.993-0.087-2.88-0.24c-5.333-0.267-9.955-1.245-14.4-2.399c-2.259-1.021-4.437-2.123-6.72-3.12
			c-0.899-0.861-1.961-1.559-3.12-2.16c-0.392-0.647-0.938-1.142-1.68-1.44c-0.699-0.9-1.499-1.7-2.4-2.399
			c-1.332-1.868-2.68-3.72-4.08-5.521c-0.184-0.696-0.379-1.38-0.96-1.68c-0.054-0.187-0.006-0.474-0.24-0.48
			c-0.346-1.094-0.825-2.055-1.44-2.88c-0.2-1.16-0.67-2.05-1.2-2.88c-0.076-0.804-0.247-1.513-0.72-1.92
			c-0.377-1.623-0.823-3.177-1.44-4.56c-0.24-1.76-0.637-3.363-1.2-4.801c-0.079-1.36-0.301-2.578-0.72-3.6
			c-0.294-2.746-0.636-5.443-1.2-7.92c-0.149-0.651,0.305-1.905-0.24-2.16c-0.127-3.232-0.346-6.374-0.72-9.36c0-0.8,0-1.6,0-2.399
			c-0.155-1.046,0.313-2.713-0.24-3.36c0-6.16,0-12.32,0-18.48c0.557-1.203,0.083-3.438,0.24-5.04c0.422-0.138,1.41,0.29,1.44-0.24
			c0.32,0,0.64,0,0.96,0c0.729-0.151,2.067,0.307,2.4-0.24c0.32,0,0.64,0,0.96,0c1.045,0.235,0.214,2.346,0.48,3.36
			c0,1.76,0,3.52,0,5.28c0,0.08,0,0.16,0,0.24c-0.4,3.601-0.4,8.879,0,12.48c0,1.439,0,2.88,0,4.319
			c0.152,0.809-0.309,2.229,0.24,2.641c0,0.72,0,1.439,0,2.16c0.138,1.702,0.096,3.584,0.48,5.04
			C70.481,139.45,70.023,140.787,70.571,141.12z"/>
		<path fill-rule="evenodd" clip-rule="evenodd" fill="#7E0000" d="M68.891,165.36c0.473,0.407,0.644,1.116,0.72,1.92
			C69.138,166.873,68.967,166.164,68.891,165.36z"/>
		<path fill-rule="evenodd" clip-rule="evenodd" fill="#8C8C8C" d="M101.051,185.28c1.652,0.027,3.489-0.129,4.8,0.24
			c0,0.08,0,0.16,0,0.24C104.062,185.79,102.36,185.731,101.051,185.28z"/>
		<path fill-rule="evenodd" clip-rule="evenodd" fill="#FFFFFF" d="M120.971,185.761c-3.52,0-7.04,0-10.56,0
			c-1.044-0.557-3.117-0.083-4.56-0.24c-1.312-0.369-3.148-0.213-4.8-0.24c-6.468-0.571-11.376-2.703-15.36-5.76
			c-1.319-1.722-2.904-3.176-4.56-4.561c-6.352-8.448-9.389-20.21-10.56-33.84c-0.157-1.442,0.316-3.516-0.24-4.56
			c-0.156-1.204,0.314-3.035-0.24-3.84c-0.158-1.843,0.317-4.318-0.24-5.761c0-0.8,0-1.6,0-2.399c0-4.24,0-8.48,0-12.72
			c0-1.04,0-2.08,0-3.12c0.554-0.806,0.084-2.636,0.24-3.84c-0.166-5.366,0.524-9.876,0.72-14.88c0.148-0.651-0.305-1.904,0.24-2.16
			c0.373-0.907,0.468-2.092,0.48-3.36c0.138-0.422-0.29-1.41,0.24-1.44c1.348-3.852,1.259-9.141,4.8-10.8
			c0.187,0.054,0.474,0.006,0.48,0.24c1.992,1.528,3.87,3.17,5.76,4.8c0,8.08,0,16.16,0,24.24c-0.859,5.221,0.531,12.692-0.72,17.52
			c-1.445,1.195-3,2.28-4.56,3.36c-0.342,0.058-0.405,0.396-0.72,0.479c-1.027,0.573-1.948,1.252-2.4,2.4
			c0.392,0.647,0.938,1.142,1.68,1.44c0.219,0.42,0.446,0.833,1.2,0.72c1.107-0.893,2.132-1.868,2.88-3.12
			c5.73-4.509,12.851-7.629,22.08-8.64c1.443-0.157,3.516,0.316,4.56-0.24c2.72,0,5.44,0,8.16,0c1.044,0.556,3.117,0.083,4.56,0.24
			c4.37,0.271,7.897,1.383,11.52,2.4c0.369-0.911,0.695-1.865,0.96-2.88c-1.579-0.501-3.233-0.926-4.8-1.44
			c-1.27-0.81-0.526-3.633-0.72-5.52c-0.16-4.64,0.319-9.919-0.24-14.16c0-1.36,0-2.72,0-4.08c-0.16-5.84,0.319-12.319-0.24-17.76
			c0-2.08,0-4.16,0-6.24c0.917-0.684,2.653-0.547,2.88-1.92c0.22-0.42,0.083-1.197,0.48-1.44c0.08,0,0.16,0,0.24,0
			c-0.112-1.952,1.466-2.213,2.64-2.88c1.262-0.424,3.513-0.293,4.8,0c0.187,0.054,0.474,0.006,0.48,0.24
			c1.899,1.38,3.069,3.49,3.12,6.72c0,2.32,0,4.64,0,6.96c0,6,0,12,0,18c-0.559,1.922-0.082,4.879-0.24,7.2c0,2.24,0,4.48,0,6.72
			c0,1.6,0,3.2,0,4.8c-0.559,1.842-0.081,4.719-0.24,6.96c0,0.96,0,1.92,0,2.88c0.153,0.887-0.311,2.391,0.24,2.88
			c0.819,1.98,2.329,3.271,4.56,3.84c0,0.08,0,0.16,0,0.24c-0.74,0.381,3.141,0.381,2.4,0c0-0.08,0-0.16,0-0.24
			c1.22-0.14,1.854-0.866,2.88-1.2c1.234-0.053,3.891-3.421,2.4-2.399c5.719-7.081,9.289-16.311,15.12-23.28
			c1.364-0.798,3.052-2.545,3.6-3.36c0.001,0.133-0.194,0.272-0.24,0c0.146-0.014,0.284-0.036,0.24-0.24
			c0.831-0.368,1.19-1.209,2.4-1.2c1.29,0.149,3.27-0.39,3.84,0.48c0,1.76,0,3.52,0,5.28c-3.054,13.383-8.247,25.547-13.681,36.96
			c-5.455,11.459-10.726,22.952-18.239,32.641c-2.304,1.856-4.339,3.981-6.24,6.239
			C134.409,180.959,129.097,184.766,120.971,185.761z M124.571,143.28c1.52-1.041,2.885-2.234,3.84-3.84
			c1.694-1.745,4.322-2.558,6.24-4.08c-0.095-0.865-0.311-1.609-0.48-2.4c-3.573,0.587-5.604,2.717-8.16,4.32
			c-1.22,1.02-2.34,2.14-3.359,3.36c-6.306,7.934-10.721,17.759-12.72,30c1.163-0.043,1.923,0.316,2.88,0.479
			C114.985,160.094,118.61,150.52,124.571,143.28z"/>
		<path fill-rule="evenodd" clip-rule="evenodd" fill="#8C8C8C" d="M110.411,185.761c3.52,0,7.04,0,10.56,0
			c-3.68,0.559-8.399,0.08-12.48,0.239c0-0.08,0-0.159,0-0.239C109.131,185.761,109.771,185.761,110.411,185.761z"/>
		<path fill-rule="evenodd" clip-rule="evenodd" fill="#7E0000" d="M91.451,189.841c4.445,1.154,9.067,2.133,14.4,2.399
			c0,0.08,0,0.16,0,0.24C100.517,192.134,95.449,191.522,91.451,189.841z"/>
		<path fill-rule="evenodd" clip-rule="evenodd" fill="#5E0000" d="M119.771,192.48c2.633-0.406,5.132-0.947,7.68-1.44
			c-2.084,0.877-4.526,1.395-7.44,1.44C119.931,192.48,119.851,192.48,119.771,192.48z"/>
		<path fill-rule="evenodd" clip-rule="evenodd" fill="#F4CACA" d="M112.091,46.8c2.242-0.4,6.314-0.557,7.92,0.48
			C117.807,46.685,114.915,46.777,112.091,46.8z"/>
		<path fill-rule="evenodd" clip-rule="evenodd" fill="#F4CACA" d="M87.131,61.92c-0.155,1.045,0.313,2.713-0.24,3.36
			C87.046,64.235,86.578,62.567,87.131,61.92z"/>
		<path fill-rule="evenodd" clip-rule="evenodd" fill="#F4CACA" d="M105.851,185.521c1.443,0.157,3.516-0.316,4.56,0.24
			c-0.64,0-1.28,0-1.92,0c-0.88,0-1.76,0-2.64,0C105.851,185.681,105.851,185.601,105.851,185.521z"/>
		<path fill-rule="evenodd" clip-rule="evenodd" fill="#5E0000" d="M184.331,94.56c0.399,1.364,0.399,4.396,0,5.76
			C184.331,98.4,184.331,96.48,184.331,94.56z"/>
		<path fill-rule="evenodd" clip-rule="evenodd" fill="#5E0000" d="M63.371,103.68c-0.158,1.603,0.316,3.837-0.24,5.04
			c0-1.68,0-3.36,0-5.04C63.211,103.68,63.291,103.68,63.371,103.68z"/>
		<path fill-rule="evenodd" clip-rule="evenodd" fill="#BEBEBE" d="M107.771,115.2c2,0,4,0,6,0c1.125,0.155,2.874-0.314,3.6,0.24
			c-0.8,0-1.6,0-2.4,0c-2.72,0-5.44,0-8.16,0c-0.8,0-1.6,0-2.4,0C105.058,114.887,106.726,115.355,107.771,115.2z"/>
		<path fill-rule="evenodd" clip-rule="evenodd" fill="#864141" d="M178.091,90.24c1.046,0.155,2.713-0.313,3.36,0.24
			C180.406,90.325,178.738,90.793,178.091,90.24z"/>
		<path fill-rule="evenodd" clip-rule="evenodd" fill="#864141" d="M107.771,115.2c1.444-0.399,4.556-0.399,6,0
			C111.771,115.2,109.771,115.2,107.771,115.2z"/>
		<path fill-rule="evenodd" clip-rule="evenodd" fill="#864141" d="M105.851,185.761c0.88,0,1.76,0,2.64,0c0,0.08,0,0.159,0,0.239
			C107.683,185.849,106.262,186.31,105.851,185.761z"/>
	</g>
</g>
</svg>
